Coordinates
version=1
nRows=18
nColumns=22
inDegrees=yes

Units are S.I. units (second, meters, Newtons, ...)
If the header above contains a line with 'inDegrees', this indicates whether rotational values are in degrees (yes) or radians (no).

endheader
time	pelvis_tilt	pelvis_list	pelvis_rotation	pelvis_tx	pelvis_ty	pelvis_tz	hip_flexion_r	hip_adduction_r	hip_rotation_r	knee_angle_r	ankle_angle_r	subtalar_angle_r	hip_flexion_l	hip_adduction_l	hip_rotation_l	knee_angle_l	ankle_angle_l	subtalar_angle_l	lumbar_extension	lumbar_bending	lumbar_rotation
      0.01000000	     -0.13407154	     -4.43988482	     -8.12961917	     -1.34889068	      1.02495230	     -0.39431250	      1.88374310	      6.69406408	      2.58588602	    -10.39870111	      7.52674555	     -4.88334669	      1.62111917	     -2.56599096	     -5.13304384	    -11.54342047	     11.80985966	     -1.56429419	    -10.49320559	      2.60188213	      1.36794809
      0.02000000	     -0.13306549	     -4.44089344	     -8.12947655	     -1.34881973	      1.02495360	     -0.39430233	      1.87892445	      6.69502468	      2.58573402	    -10.39995188	      7.52462114	     -4.88398920	      1.61828878	     -2.56697390	     -5.13294946	    -11.54831651	     11.81069099	     -1.56458348	    -10.48779883	      2.60263465	      1.36577717
      0.03000000	     -0.13197567	     -4.44200244	     -8.12930151	     -1.34873921	      1.02495415	     -0.39429018	      1.87393743	      6.69616879	      2.58589581	    -10.40192280	      7.52326582	     -4.88459760	      1.61486765	     -2.56806645	     -5.13293219	    -11.55318566	     11.81205834	     -1.56474405	    -10.48210142	      2.60339953	      1.36379880
      0.04000000	     -0.13036788	     -4.44318429	     -8.12910797	     -1.34864923	      1.02495425	     -0.39427629	      1.86852282	      6.69741889	      2.58644410	    -10.40518781	      7.52255558	     -4.88521906	      1.61061206	     -2.56913875	     -5.13279153	    -11.55870076	     11.81391947	     -1.56477335	    -10.47556391	      2.60432834	      1.36210940
      0.05000000	     -0.12803569	     -4.44444125	     -8.12875519	     -1.34855252	      1.02495395	     -0.39426132	      1.86272321	      6.69874816	      2.58742337	    -10.40996408	      7.52243236	     -4.88592154	      1.60563402	     -2.57019232	     -5.13246861	    -11.56517019	     11.81638029	     -1.56467636	    -10.46847239	      2.60544584	      1.36073028
      0.06000000	     -0.11341735	     -4.45592132	     -8.12664892	     -1.34847717	      1.02496278	     -0.39424467	      1.84760067	      6.71027169	      2.59341467	    -10.42331922	      7.53183034	     -4.89440383	      1.59656229	     -2.58217220	     -5.13587368	    -11.59065665	     11.85018134	     -1.56232208	    -10.48268358	      2.61636646	      1.35202562
      0.07000000	     -0.11051351	     -4.45617413	     -8.12360060	     -1.34836818	      1.02496003	     -0.39423689	      1.84129182	      6.71020675	      2.59428995	    -10.42921180	      7.53170903	     -4.89502128	      1.59058248	     -2.58163036	     -5.13582102	    -11.59627202	     11.85114562	     -1.56199057	    -10.47264356	      2.61781442	      1.35337332
      0.08000000	     -0.10646847	     -4.45654301	     -8.12103140	     -1.34825873	      1.02495774	     -0.39422722	      1.83478404	      6.71060097	      2.59579345	    -10.43719476	      7.53213339	     -4.89585343	      1.58402923	     -2.58120473	     -5.13509091	    -11.60378601	     11.85290330	     -1.56163302	    -10.46286336	      2.61863842	      1.35425418
      0.09000000	     -0.08817966	     -4.46006414	     -8.11687999	     -1.34818500	      1.02496774	     -0.39421948	      1.82349870	      6.71325545	      2.60014994	    -10.46329553	      7.54721171	     -4.90578096	      1.57218494	     -2.58304473	     -5.13289954	    -11.62856414	     11.87855214	     -1.55803472	    -10.47803651	      2.61959572	      1.35603980
      0.10000000	     -0.08393898	     -4.46014674	     -8.11207150	     -1.34807192	      1.02496577	     -0.39421532	      1.81641989	      6.71315861	      2.60127499	    -10.47070201	      7.54770587	     -4.90668625	      1.56485169	     -2.58219976	     -5.13318920	    -11.63457972	     11.87965792	     -1.55770873	    -10.46568251	      2.62083311	      1.35703910
      0.11000000	     -0.07905074	     -4.46020970	     -8.10622053	     -1.34796075	      1.02496394	     -0.39421178	      1.80931367	      6.71318709	      2.60250907	    -10.47941815	      7.54880277	     -4.90777117	      1.55716832	     -2.58156142	     -5.13308476	    -11.64131040	     11.88146769	     -1.55738542	    -10.45393340	      2.62141454	      1.35818896
      0.12000000	     -0.07326631	     -4.46030355	     -8.09919622	     -1.34785438	      1.02496369	     -0.39420971	      1.80192817	      6.71299455	      2.60332031	    -10.48886340	      7.55078792	     -4.90904440	      1.54921977	     -2.58095875	     -5.13272341	    -11.64825435	     11.88402553	     -1.55702380	    -10.44236699	      2.62174130	      1.35966146
      0.13000000	     -0.04308191	     -4.46122835	     -8.07997558	     -1.34776342	      1.02498441	     -0.39422553	      1.77606579	      6.70936579	      2.57419672	    -10.51201094	      7.59898933	     -4.92743885	      1.52249064	     -2.57815651	     -5.12404165	    -11.66605725	     11.92780759	     -1.55062223	    -10.46482092	      2.61781955	      1.36125768
      0.14000000	     -0.03817538	     -4.46107815	     -8.07313477	     -1.34765536	      1.02498487	     -0.39422896	      1.76807487	      6.70874862	      2.57466905	    -10.51873168	      7.59888621	     -4.92812100	      1.51437108	     -2.57669759	     -5.12385287	    -11.67118691	     11.92718207	     -1.55018644	    -10.45031559	      2.61981009	      1.36172961
      0.15000000	     -0.03305036	     -4.46092629	     -8.06323654	     -1.34755072	      1.02498553	     -0.39423292	      1.75949492	      6.70803922	      2.57378731	    -10.52474588	      7.59999985	     -4.92886197	      1.50679826	     -2.57596093	     -5.12321074	    -11.67614324	     11.92731078	     -1.54972192	    -10.43629463	      2.62061506	      1.36335866
      0.16000000	      0.00161664	     -4.46270952	     -8.01241507	     -1.34742745	      1.02502022	     -0.39430356	      1.71056855	      6.70120618	      2.50012702	    -10.51353126	      7.63698690	     -4.94637040	      1.47310987	     -2.57025225	     -5.07369264	    -11.68279657	     11.94438264	     -1.53583926	    -10.45578481	      2.62479025	      1.32507933
      0.17000000	      0.00629425	     -4.46255150	     -8.00177539	     -1.34733369	      1.02501934	     -0.39431076	      1.70263063	      6.70059819	      2.50069012	    -10.51915048	      7.63618924	     -4.94661083	      1.46753768	     -2.56929077	     -5.07269359	    -11.68851818	     11.94380624	     -1.53562802	    -10.44186415	      2.62550522	      1.32903899
      0.18000000	      0.01243875	     -4.46206816	     -7.97369563	     -1.34724092	      1.02501869	     -0.39434036	      1.68173194	      6.69828289	      2.47788155	    -10.50070736	      7.64251113	     -4.94884999	      1.46890573	     -2.56795179	     -5.05429530	    -11.70518274	     11.94652237	     -1.53348949	    -10.43042225	      2.62430152	      1.34260932
